<svg xmlns="http://www.w3.org/2000/svg" viewBox="0 0 500 500" style="enable-background:new 0 0 500 500" xml:space="preserve"><style>.st0{display:none}.st1{display:inline}.st3{opacity:.38}.st3,.st4{fill:#fff}.st5,.st6{opacity:.9;fill:#fff}.st6{opacity:.6}.st9{fill:#cecfcf}.st10{fill:#858685}.st11{fill:#9d9e9e}.st12{fill:#5f6a7d}.st13{fill:#8a9ab5}.st14{fill:#a2132b}.st15{fill:#800f22}.st16{fill:#751a1c}.st17{fill:#3f454b}.st19{fill:#ffaf16}.st20{fill:#ff3b23}.st22{fill:#19232b}.st23{fill:#729daf}.st24,.st25{display:inline;fill:#5f6a7d}.st25{fill:#8691a3}.st31{opacity:.49;fill:#ffbd7a}.st32{opacity:.43;fill:#cf3851}.st34{display:inline;fill:#f0f0f0}.st35{fill:#c1c1c2}.st35,.st36{display:inline}.st36,.st40{fill:#ff3b21}.st41{fill:#1d262d}</style><g id="OBJECTS"><path class="st13" d="m176.22 332.05-7.56 1.43-7.56-1.43-1.67 10.78s2.66 3.41 9.23 3.41 9.23-3.41 9.23-3.41l-1.67-10.78z"/><path class="st14" d="M219.69 294.58s-40.14 16.71-61.97 31.19c-15.83 10.5-17.61 22.39-17.39 28.13.04 1.04-.41 1.99-1.14 2.62-.6.54-1.39.86-2.25.86h-4.25c-1.67 0-3.08-1.21-3.35-2.85-.15-.92-.32-2.05-.5-3.36-1.83-13-4.76-43.62 4.35-64.01 11.72-26.25 67.57-46.64 67.57-46.64l5.21 14.86 1.42 4.06 12.3 35.14z"/><path class="st15" d="M219.69 294.58s-40.14 16.71-61.97 31.19c-15.83 10.5-17.61 22.39-17.39 28.13.04 1.04-.41 1.99-1.14 2.62-.6.54-1.39.86-2.25.86h-4.25c-1.67 0-3.08-1.21-3.35-2.85-.15-.92-.32-2.05-.5-3.36 2.29-2.76 4.87-7.19 5.03-13.24.3-11.02-1.19-17.57 17.86-48.93 19.05-31.37 52.09-34.53 52.09-34.53l3.57 4.97 12.3 35.14z"/><path class="st14" d="M185.02 250.34c0 .7-.04 1.39-.12 2.06l-7.14 78.67c0 2.48-4.35 4.48-9.71 4.48-.87 0-1.71-.05-2.51-.15-4.14-.51-7.2-2.25-7.2-4.33l-9.08-77.77c-.17-.97-.25-1.95-.25-2.96 0-.81.05-1.61.16-2.38 1.06-8.04 7.42-14.41 15.46-15.47.78-.11 1.58-.16 2.39-.16 9.13 0 16.68 6.81 17.84 15.63.11.77.16 1.57.16 2.38z"/><path class="st16" d="M184.86 247.96c-5.23 2.77-11.33 4.37-17.84 4.37-1.18 0-2.35-.05-3.5-.16-5.2-.46-10.07-1.94-14.35-4.21 1.06-8.04 7.42-14.41 15.46-15.47.78-.11 1.58-.16 2.39-.16 9.13 0 16.68 6.81 17.84 15.63z"/><path class="st13" d="m323.78 332.05 7.56 1.43 7.56-1.43 1.67 10.78s-2.66 3.41-9.23 3.41-9.23-3.41-9.23-3.41l1.67-10.78z"/><path class="st14" d="M371.79 346.38c-.4 3.43-.81 6.23-1.12 8.15a3.403 3.403 0 0 1-3.35 2.85h-4.25c-1.9 0-3.46-1.57-3.39-3.48.22-5.74-1.56-17.63-17.39-28.13-6.19-4.1-13.85-8.39-21.65-12.42-19.71-10.19-40.32-18.77-40.32-18.77l7.47-21.34 8.17-23.33 3.29-9.39s6.72 2.46 16 6.76c10.07 4.68 23.16 11.53 33.89 19.81 7.85 6.03 14.45 12.83 17.68 20.07 8.12 18.19 6.67 44.52 4.97 59.22z"/><path class="st15" d="M371.79 346.38c-.4 3.43-.81 6.23-1.12 8.15a3.403 3.403 0 0 1-3.35 2.85h-4.25c-1.9 0-3.46-1.57-3.39-3.48.22-5.74-1.56-17.63-17.39-28.13-6.19-4.1-13.85-8.39-21.65-12.42-19.71-10.19-40.32-18.77-40.32-18.77l7.47-21.34 8.17-23.33c3.9 3.75 8.47 5.97 8.47 5.97s36.61 13.16 50 41.65c13.4 28.49 12.52 41.67 13.71 46.99.44 1.98 1.94 2.27 3.65 1.86z"/><path class="st14" d="M351 250.34c0 1.01-.09 1.99-.25 2.96l-1.61 13.79-1.93 16.54-.16 1.33v.01l-4.76 40.8-.62 5.3c0 2.48-4.35 4.48-9.71 4.48-1.43 0-2.78-.14-4-.4-3.37-.7-5.71-2.26-5.71-4.08l-1.61-17.72-3.17-34.97-.48-5.28v-.01l-1.88-20.69a18.544 18.544 0 0 1 .03-4.44c.03-.23.07-.46.11-.68.04-.26.1-.53.15-.79.04-.19.09-.37.14-.56.2-.85.48-1.67.81-2.46.06-.17.14-.33.21-.49.07-.16.14-.31.22-.47.13-.28.27-.56.43-.83.1-.19.2-.37.31-.55.09-.15.18-.3.28-.45.1-.17.21-.33.33-.49.11-.17.23-.34.36-.51.11-.16.23-.32.36-.47.17-.23.36-.46.56-.68.14-.17.29-.34.45-.5.05-.06.1-.12.16-.17.15-.16.31-.32.48-.48.19-.19.38-.36.58-.54.2-.18.4-.35.61-.51l.45-.36c.28-.21.57-.42.86-.61.2-.14.41-.27.62-.4.01 0 .02-.01.03-.02.19-.12.39-.23.6-.34a16.271 16.271 0 0 1 1.52-.76c.19-.09.38-.17.58-.24a17.83 17.83 0 0 1 4.95-1.19c.16-.02.33-.03.5-.04.39-.03.79-.04 1.19-.04 9.13 0 16.68 6.81 17.85 15.63.11.77.16 1.57.16 2.38z"/><path class="st16" d="M350.84 247.96c-5.23 2.77-11.33 4.37-17.85 4.37-3.59 0-7.05-.48-10.3-1.38-2.67-.73-5.2-1.74-7.55-2.99.03-.23.07-.46.11-.68.04-.26.1-.53.15-.79.04-.19.09-.37.14-.56.2-.85.48-1.67.81-2.46.06-.17.14-.33.21-.49.07-.16.14-.31.22-.47.13-.28.27-.56.43-.83.1-.19.2-.37.31-.55.09-.15.18-.3.28-.45.1-.17.21-.33.33-.49.11-.17.23-.34.36-.51.11-.16.23-.32.36-.47.17-.23.36-.46.56-.68.14-.17.29-.34.45-.5.05-.06.1-.12.16-.17.15-.16.31-.32.48-.48.19-.19.38-.36.58-.54.2-.18.4-.35.61-.51l.45-.36c.28-.21.57-.42.86-.61.2-.14.41-.27.62-.4.01 0 .02-.01.03-.02.19-.12.39-.23.6-.34a16.271 16.271 0 0 1 1.52-.76c.19-.09.38-.17.58-.24a17.83 17.83 0 0 1 4.95-1.19c.16-.02.33-.03.5-.04.39-.03.79-.04 1.19-.04 9.13 0 16.68 6.81 17.85 15.63z"/><path class="st17" d="M273.9 299.12c-6.21-3.58-25.22 0-25.22 0s-19.01-3.58-25.22 0c-6.21 3.58-15.27 27.54-14.14 32.78 1.14 5.23 13.19 19.28 39.36 19.28s38.22-14.05 39.36-19.28c1.13-5.24-7.93-29.2-14.14-32.78z"/><path d="M298.97 112.16c0 5.82-12.13 12.14-31.13 14.76-5.72.8-12.05 1.25-18.87 1.26-29.48.02-50.03-8.38-50.03-15.93 0-.58.11-1.18.34-1.76.15-.37.2-.75.15-1.11 6.3-15.78 14.87-37.89 25.69-52.84 7-9.68 14.94-16.36 23.8-16.36.08 0 .17 0 .25.01 8.73.12 16.55 6.81 23.46 16.43 10.55 14.68 18.98 36.16 25.25 51.43-.06.5.04 1.02.33 1.52.5.86.76 1.74.76 2.59z" style="fill:#ff8100"/><path class="st19" d="M310.42 201.67c-.31 3.26-.67 6.5-1.09 9.7l-.27 2.01c-.02.17-.05.34-.07.51h-.01l-.26 1.83v.02a307.15 307.15 0 0 1-3.96 21.56v.01l-.03.1c-.12.58-.25 1.16-.38 1.73-.19.83-.38 1.65-.57 2.46 0 .02 0 .05-.02.08-6.26 26.8-14.48 47.41-17.13 54.2-.41 1.02-.68 1.73-.8 2.1-.32.97-.93 2.02-1.89 3.08-2.44 2.72-7.18 5.52-15.4 7.27-5.1 1.09-11.55 1.77-19.62 1.77-21.09 0-31.08-4.65-35.03-9.05-.95-1.06-1.55-2.11-1.87-3.07-.13-.37-.4-1.08-.81-2.11-2.66-6.8-10.87-27.4-17.13-54.18l-.38-1.62c-.06-.3-.13-.61-.2-.91l-.41-1.84v-.01c-1.52-6.87-2.88-14.1-3.97-21.57l-.03-.26c-.09-.52-.16-1.04-.24-1.58l-.27-1.97-.03-.26c-.02-.09-.03-.19-.03-.28-.43-3.19-.79-6.42-1.1-9.69 3.09 1.93 6.95 3.8 11.76 5.55 13.36 4.86 31.01 7.53 49.71 7.53 5.91 0 11.71-.27 17.31-.79 12.12-1.12 23.27-3.42 32.41-6.74 4.83-1.76 8.71-3.64 11.81-5.58z"/><path class="st19" d="M311.42 184.63v.02c-.01.24-.02.48-.02.72 0 .01-.01.04-.01.05v.01l-.03 1.08c-.02.93-.05 1.86-.09 2.8-.03.66-.06 1.32-.1 1.98-.04.89-.09 1.78-.15 2.67-.08 1.33-.18 2.65-.28 3.97-.03.43-.07.87-.11 1.31-.06.81-.14 1.62-.21 2.43-3.1 1.94-6.98 3.82-11.81 5.58-9.14 3.32-20.29 5.62-32.41 6.74-5.6.52-11.4.79-17.31.79-18.7 0-36.35-2.67-49.71-7.53-4.81-1.75-8.67-3.62-11.76-5.55-.09-.98-.18-1.97-.25-2.96-.08-.97-.16-1.95-.23-2.92 0-.03-.01-.06 0-.1-.07-.98-.14-1.96-.19-2.94-.07-1.02-.12-2.05-.16-3.07-.04-.76-.07-1.51-.09-2.26-.02-.34-.03-.67-.03-1.01-.01-.22-.02-.43-.02-.65-.02-.49-.02-.99-.03-1.47v-.02c-.02-.73-.04-1.45-.04-2.19-.01-1.02-.02-2.04-.01-3.06.02-4.78.2-9.58.58-14.37 1.12-14.38 3.93-29.67 8.42-43.91 1.23-3.89 2.57-7.7 4.06-11.39.05.36 0 .74-.15 1.11-.23.58-.34 1.18-.34 1.76 0 7.55 20.55 15.95 50.03 15.93 6.82-.01 13.15-.46 18.87-1.26 19-2.62 31.13-8.94 31.13-14.76 0-.85-.26-1.73-.76-2.59-.29-.5-.39-1.02-.33-1.52 1.69 4.1 3.22 8.36 4.59 12.72 4.49 14.23 7.3 29.53 8.42 43.91.31 3.92.48 7.85.55 11.76.04 2.74.04 5.47-.02 8.19z"/><path class="st4" d="M311.4 185.36c-.14 5.49-.48 10.94-.98 16.3-3.1 1.94-6.97 3.83-11.81 5.59-13.36 4.86-31.02 7.53-49.72 7.53s-36.36-2.67-49.71-7.53c-4.82-1.75-8.68-3.63-11.76-5.55-.5-5.25-.83-10.58-.98-15.95 1.57 7.87 25.56 18.6 62.45 18.6 37.5 0 61.67-11.09 62.51-18.99z"/><path class="st20" d="M306.79 112.16c0 3.04-1.48 5.95-4.32 8.61-3.06 2.86-7.7 5.43-13.75 7.57-6.05 2.14-13.21 3.74-21 4.72-5.95.75-12.27 1.14-18.75 1.15-14.96.02-29.08-2.05-39.76-5.8-6.11-2.15-10.78-4.73-13.84-7.64-2.8-2.62-4.26-5.5-4.26-8.51 0-1.18.22-2.36.68-3.52.63-1.58 2.81-2.49 4.88-2 1.58.36 2.64 1.43 2.76 2.64.05.36 0 .74-.15 1.11-.23.58-.34 1.18-.34 1.76 0 7.55 20.55 15.95 50.03 15.93 6.82-.01 13.15-.46 18.87-1.26 19-2.62 31.13-8.94 31.13-14.76 0-.85-.26-1.73-.76-2.59-.29-.5-.39-1.02-.33-1.52.13-1.04.97-2.01 2.3-2.46 1.97-.69 4.29 0 5.17 1.51.95 1.64 1.44 3.35 1.44 5.06zM321.9 184.94c0 4.73-2.27 10.96-11.48 16.73-3.1 1.94-6.98 3.82-11.81 5.58-9.14 3.32-20.29 5.62-32.41 6.74-5.6.52-11.4.79-17.31.79-18.7 0-36.35-2.67-49.71-7.53-4.81-1.75-8.67-3.62-11.76-5.55-9.26-5.77-11.53-12.02-11.53-16.76 0-1.78.33-3.55.99-5.27a5.23 5.23 0 0 1 6.75-3.01c1.23.46 2.17 1.33 2.74 2.39-.01 1.02 0 2.04.01 3.06 0 .74.02 1.46.04 2.19v.02a3.71 3.71 0 0 0 .02 1.43c0 .01.01.03.01.04.03.15.07.29.12.44.03.1.06.2.1.3.34.93.98 1.88 1.91 2.85.07.08.16.17.24.25 3.19 3.21 9.4 6.52 18.13 9.18.51.16 1.02.32 1.55.47l.33.09c.68.2 1.37.39 2.08.57.8.21 1.62.41 2.47.61.79.19 1.6.37 2.43.55 3.09.66 6.41 1.25 9.92 1.73.66.09 1.33.18 2 .26 2.15.27 4.36.5 6.65.68.88.08 1.77.14 2.68.2 3.77.25 7.72.38 11.83.38 5.47 0 10.65-.24 15.52-.67.65-.05 1.3-.11 1.94-.18h.05c.71-.07 1.41-.15 2.11-.22 2.48-.29 4.87-.62 7.17-1 2.79-.45 5.44-.97 7.94-1.55.82-.19 1.63-.38 2.42-.58 2.84-.72 5.46-1.5 7.85-2.33.88-.31 1.74-.62 2.56-.94 3.24-1.25 5.99-2.6 8.22-3.97a29.429 29.429 0 0 0 2.22-1.5c.23-.17.44-.34.65-.51.33-.26.64-.53.93-.8.15-.13.29-.27.42-.4.27-.27.52-.54.75-.8.23-.27.43-.53.62-.79.09-.14.18-.27.26-.4.08-.13.16-.26.23-.39s.13-.26.19-.39c.12-.25.22-.51.29-.76.03-.1.06-.21.08-.31.04-.14.06-.29.08-.43v-.01c0-.01.01-.04.01-.05.02-.14.03-.28.03-.43 0-.09 0-.19-.01-.29v-.02c.06-2.72.06-5.45.02-8.19a5.244 5.244 0 0 1 8.41.99c1.36 2.41 2.05 4.94 2.05 7.51zM286.63 295.88c-.4 1.02-.68 1.73-.8 2.1-.32.97-.93 2.02-1.88 3.07-3.95 4.4-13.95 9.05-35.03 9.05-21.09 0-31.08-4.65-35.03-9.06-.95-1.06-1.55-2.11-1.88-3.07-.12-.37-.4-1.08-.8-2.11 4.35-13.55 10.32-32.2 11.18-34.94.99-3.17 3.32-10.6 10-10.6h33.05c6.68 0 9.01 7.43 10.01 10.61.79 2.53 5.92 18.53 10.04 31.4l1.14 3.55z"/><path class="st20" d="M283.94 301.05c-3.95 4.4-13.95 9.05-35.03 9.05-21.09 0-31.08-4.65-35.03-9.06.32-1 .65-2.05 1.01-3.13 4.34-13.53 10.55-32.91 11.44-35.74 1.38-4.4 3.03-7.71 6.06-7.71h33.06c3.03 0 4.69 3.31 6.07 7.71.88 2.83 7.1 22.22 11.43 35.75.34 1.08.67 2.13.99 3.13z"/><path d="M282.93 297.92c-4.52 4.08-14.54 8.05-34.02 8.05-19.48 0-29.5-3.97-34.02-8.06 4.34-13.53 10.55-32.91 11.44-35.74 1.38-4.4 3.03-7.71 6.06-7.71h33.06c3.03 0 4.69 3.31 6.07 7.71.86 2.84 7.08 22.23 11.41 35.75z" style="fill:#8a1e00"/><path class="st22" d="M217.44 225.01c-.47 3.93-.95 7.86-1.42 11.79-.51 4.51-5.12 7.73-10.22 6.94-3.92-.6-7.82-1.29-11.72-2.05l-.01-.01-2.9-3 .01-.01 1.9-1.36v-.01c-1.51-6.87-2.88-14.1-3.97-21.57l-2.22-2.31 1.61-2.04h.01c7.16 1.74 14.36 3.17 21.6 4.28 4.54.71 7.84 4.83 7.33 9.35z"/><path class="st17" d="m214.56 225.84-1.23 9.42c-.49 3.87-4.44 6.59-8.77 5.89-3.7-.59-7.39-1.26-11.06-2h-.01c-.78-.16-1.55-.31-2.31-.48l1.9-1.36v-.01c-1.51-6.87-2.88-14.1-3.97-21.57l-2.22-2.31c.65.16 1.31.32 1.96.47h.01c6.44 1.55 12.92 2.84 19.44 3.88 3.93.64 6.75 4.21 6.26 8.07z"/><path class="st23" d="M212.24 226.37c-.36 2.59-.73 5.18-1.08 7.78-.45 3.37-3.91 5.71-7.66 5.09-3.48-.57-6.96-1.21-10.42-1.92v-.01c-1.51-6.87-2.88-14.1-3.97-21.57 5.86 1.39 11.76 2.57 17.67 3.54 3.45.57 5.92 3.71 5.46 7.09z"/><path class="st22" d="M264.56 246.6c-10.44.58-20.91.58-31.35 0-5.14-.28-8.98-4.38-8.56-8.9l1.05-11.83c.43-4.53 4.51-7.88 9.08-7.63 9.4.52 18.81.52 28.21 0 4.57-.25 8.65 3.1 9.08 7.63l1.05 11.83c.43 4.53-3.42 8.62-8.56 8.9z"/><path class="st17" d="M262.83 244.32c-9.29.46-18.59.46-27.88 0-4.37-.21-7.67-3.68-7.35-7.57.25-3.16.49-6.31.74-9.47.32-3.88 3.82-6.8 7.78-6.6 8.51.42 17.03.42 25.54 0 3.96-.19 7.46 2.72 7.78 6.6.25 3.16.49 6.32.74 9.47.32 3.89-2.98 7.36-7.35 7.57z"/><path class="st23" d="M261.4 242.66c-8.33.37-16.68.37-25.01 0-3.79-.17-6.67-3.17-6.42-6.56l.54-7.83c.25-3.39 3.3-5.96 6.78-5.81 7.73.35 15.47.35 23.2 0 3.48-.15 6.53 2.41 6.78 5.81l.54 7.83c.26 3.39-2.63 6.39-6.41 6.56z"/><path class="st22" d="M310.36 213.55v.01l-1.62 2.16-.02.02a307.15 307.15 0 0 1-3.96 21.56v.01l1.27 1.49-2.25 2.8c0 .02 0 .05-.02.08-.02.01-.03.01-.05.01-3.9.76-7.81 1.45-11.73 2.05-5.09.79-9.7-2.43-10.22-6.94-.47-3.93-.95-7.86-1.42-11.79-.51-4.52 2.79-8.64 7.33-9.34 7.26-1.12 14.49-2.55 21.66-4.3l1.03 2.18z"/><path class="st17" d="M310.36 213.55v.01l-1.62 2.16-.02.02a307.15 307.15 0 0 1-3.96 21.56v.01l1.27 1.49c-.56.12-1.12.23-1.68.34-.01.01-.02.01-.03.01-3.69.74-7.39 1.41-11.1 2.01-4.33.69-8.28-2.03-8.77-5.89l-1.23-9.42c-.49-3.87 2.34-7.44 6.26-8.07 6.54-1.04 13.05-2.34 19.5-3.89h.01c.45-.11.92-.22 1.37-.34z"/><path class="st23" d="m308.74 215.72-.02.02a307.15 307.15 0 0 1-3.96 21.56c-3.48.72-6.98 1.35-10.48 1.93-3.75.62-7.2-1.72-7.66-5.09-.35-2.59-.72-5.18-1.08-7.77-.46-3.37 2.01-6.51 5.45-7.08 5.94-.99 11.86-2.17 17.73-3.57h.02z"/><path d="M272.63 56.62a47.836 47.836 0 0 1-14.2 5.29c-3.06.61-6.24.93-9.48.93-8.67 0-16.81-2.29-23.83-6.3 7-9.68 14.94-16.36 23.8-16.36.08 0 .17 0 .25.01 8.73.12 16.55 6.81 23.46 16.43z" style="fill:#f91915"/><path d="M321.9 184.94c0 4.73-2.27 10.96-11.48 16.73-.31 3.26-.67 6.5-1.09 9.7l1.03 2.18v.01l-1.62 2.16-.02.02a307.15 307.15 0 0 1-3.96 21.56v.01l1.27 1.49-2.25 2.8c0 .02 0 .05-.02.08-6.26 26.8-14.48 47.41-17.13 54.2-.41 1.02-.68 1.73-.8 2.1-.32.97-.93 2.02-1.89 3.08-2.44 2.72-7.18 5.52-15.4 7.27-1.25-3.5 3.78-4.95 3.78-4.95l10.62-5.46s-8.22-25.65-11.43-35.74-6.07-7.71-6.07-7.71l.15-7.98.05-2.8.05-2.69.31-16.04.05-3.13.06-3.19.09-4.65.2-10.49.18-9.73.12-6.13.09-5.07.53-28.22.1-5.06.11-6.12.19-10.11.12-6.14s-1.67-37.37-9.41-65.01c-2.44-8.7-5.48-16.42-9.26-21.72 8.73.12 16.55 6.81 23.46 16.43 10.55 14.68 18.98 36.16 25.25 51.43.13-1.04.97-2.01 2.3-2.46 1.97-.69 4.29 0 5.17 1.51.95 1.64 1.44 3.35 1.44 5.06 0 3.04-1.48 5.95-4.32 8.61 4.49 14.23 7.3 29.53 8.42 43.91.31 3.92.48 7.85.55 11.76a5.244 5.244 0 0 1 8.41.99c1.36 2.41 2.05 4.94 2.05 7.51z" style="opacity:.28;fill:#942000"/><circle transform="rotate(-52.627 248.918 168.124)" cx="248.91" cy="168.12" style="fill:#309a9f" r="31.14"/><circle transform="rotate(-80.781 248.918 168.119)" cx="248.91" cy="168.12" style="fill:#106c70" r="26.41"/><circle transform="rotate(-27.501 248.93 168.119)" cx="248.91" cy="168.12" style="fill:#63b8db" r="22.98"/><path class="st31" d="M210.09 95.68c-1.53 3.95-2.99 8.09-2.69 12.31.3 4.23 2.84 8.58 6.92 9.7 2.14.58 4.7.1 6.08-1.65.99-1.25 1.25-2.9 1.5-4.47 2.43-14.9 7.64-29.35 15.28-42.38 2-3.41 5.34-10.64-.41-12.74-4.65-1.7-8.66 5.06-10.81 8.09-6.77 9.55-11.67 20.27-15.87 31.14zM191.54 173.59c-.08 3.43.06 7.09 2.03 9.9s6.41 4.12 8.89 1.74c1.14-1.09 1.63-2.68 2.04-4.2 3.14-11.58 4.45-23.66 3.87-35.64-.14-2.94-.47-6.06-2.28-8.39-1.64-2.11-5.76-3.48-8.01-1.45-2.33 2.1-2.57 8.28-3.19 11.19-1.86 8.84-3.14 17.82-3.35 26.85z"/><path class="st32" d="M165.54 335.4c-4.14-.51-7.2-2.25-7.2-4.33l-9.08-77.77c-.17-.97-.25-1.95-.25-2.96 0-.81.05-1.61.16-2.38 1.06-8.04 7.42-14.41 15.46-15.47-.66 4.05-.99 11.08-1.11 19.68-.37 27.31 1.45 70.37 2.02 83.23zM322.53 252.33c-.84 10.59 5.43 82.82 5.43 82.82-3.37-.7-5.71-2.26-5.71-4.08l-1.61-17.72-3.17-34.97-.48-5.28v-.01l-1.88-20.69a18.544 18.544 0 0 1 .03-4.44c.03-.23.07-.46.11-.68.04-.26.1-.53.15-.79.04-.19.09-.37.14-.56.2-.85.48-1.67.81-2.46.06-.17.14-.33.21-.49.07-.16.14-.31.22-.47.13-.28.27-.56.43-.83.1-.19.2-.37.31-.55.09-.15.18-.3.28-.45.1-.17.21-.33.33-.49.11-.17.23-.34.36-.51.11-.16.23-.32.36-.47.17-.23.36-.46.56-.68.14-.17.29-.34.45-.5.05-.06.1-.12.16-.17.15-.16.31-.32.48-.48.19-.19.38-.36.58-.54.2-.18.4-.35.61-.51l.45-.36c.28-.21.57-.42.86-.61.2-.14.41-.27.62-.4.01 0 .02-.01.03-.02.19-.12.39-.23.6-.34a16.271 16.271 0 0 1 1.52-.76c.19-.09.38-.17.58-.24a17.83 17.83 0 0 1 4.95-1.19c.16-.02.33-.03.5-.04-.31.21-.46.33-.46.33s-7.29 8.27-8.65 18.25c-.07.46-.12.92-.16 1.38z"/></g></svg>